<?xml version="1.0"?>
<svg xmlns:rdf="http://www.w3.org/1999/02/22-rdf-syntax-ns#" xmlns="http://www.w3.org/2000/svg" xmlns:cc="http://web.resource.org/cc/" xmlns:dc="http://purl.org/dc/elements/1.1/" xmlns:svg="http://www.w3.org/2000/svg" id="svg2" viewBox="0 0 426.21 426.21" version="1.0">
  <g id="g4" transform="matrix(.92388 -.38268 .38268 .92388 49.426 280.9)" stroke="#000" stroke-linecap="round" stroke-width=".66823pt" fill="none">
    <path id="path6" d="m0 0h177.16"/>
  </g>
  <g id="g8" transform="matrix(.88985 -.45626 .45626 .88985 49.426 280.9)" stroke="#000" stroke-linecap="round" stroke-width=".66823pt" fill="none">
    <path id="path10" d="m0 0h141.98"/>
  </g>
  <g id="g12" transform="matrix(.93388 -.35758 .35758 .93388 49.426 280.9)" stroke="#000" stroke-linecap="round" stroke-width=".66823pt" fill="none">
    <path id="path14" d="m0 0h142"/>
  </g>
  <g id="g16" transform="matrix(.94321 -.33221 .33221 .94321 49.426 280.9)" stroke="#000" stroke-linecap="round" stroke-width=".66823pt" fill="none">
    <path id="path18" d="m0 0h141.99"/>
  </g>
  <g id="g20" transform="matrix(.95184 -.30659 .30659 .95184 49.426 280.9)" stroke="#000" stroke-linecap="round" stroke-width=".66823pt" fill="none">
    <path id="path22" d="m0 0h141.98"/>
  </g>
  <g id="g24" transform="matrix(.92388 .38268 -.38268 .92388 49.426 145.31)" stroke="#000" stroke-linecap="round" stroke-width=".66823pt" fill="none">
    <path id="path26" d="m0 0h177.16"/>
  </g>
  <g id="g28" transform="matrix(.95184 .30659 -.30659 .95184 49.426 145.31)" stroke="#000" stroke-linecap="round" stroke-width=".66823pt" fill="none">
    <path id="path30" d="m0 0h141.98"/>
  </g>
  <g id="g32" transform="matrix(.91320 .40750 -.40750 .91320 49.426 145.31)" stroke="#000" stroke-linecap="round" stroke-width=".66823pt" fill="none">
    <path id="path34" d="m0 0h142"/>
  </g>
  <g id="g36" transform="matrix(.90186 .43204 -.43204 .90186 49.426 145.31)" stroke="#000" stroke-linecap="round" stroke-width=".66823pt" fill="none">
    <path id="path38" d="m0 0h141.99"/>
  </g>
  <g id="g40" transform="matrix(.88985 .45626 -.45626 .88985 49.426 145.31)" stroke="#000" stroke-linecap="round" stroke-width=".66823pt" fill="none">
    <path id="path42" d="m0 0h141.98"/>
  </g>
  <g id="g44" transform="matrix(.38268 -.92388 .92388 .38268 145.31 376.78)" stroke="#000" stroke-linecap="round" stroke-width=".66823pt" fill="none">
    <path id="path46" d="m0 0h177.16"/>
  </g>
  <g id="g48" transform="matrix(.30659 -.95184 .95184 .30659 145.31 376.78)" stroke="#000" stroke-linecap="round" stroke-width=".66823pt" fill="none">
    <path id="path50" d="m0 0h141.98"/>
  </g>
  <g id="g52" transform="matrix(.40751 -.91320 .91320 .40751 145.31 376.78)" stroke="#000" stroke-linecap="round" stroke-width=".66823pt" fill="none">
    <path id="path54" d="m0 0h142"/>
  </g>
  <g id="g56" transform="matrix(.43204 -.90185 .90185 .43204 145.31 376.78)" stroke="#000" stroke-linecap="round" stroke-width=".66823pt" fill="none">
    <path id="path58" d="m0 0h141.99"/>
  </g>
  <g id="g60" transform="matrix(.45626 -.88985 .88985 .45626 145.31 376.78)" stroke="#000" stroke-linecap="round" stroke-width=".66823pt" fill="none">
    <path id="path62" d="m0 0h141.98"/>
  </g>
  <g id="g64" transform="matrix(-.92388 .38268 -.38268 -.92388 376.78 145.31)" stroke="#000" stroke-linecap="round" stroke-width=".66823pt" fill="none">
    <path id="path66" d="m0 0h177.16"/>
  </g>
  <g id="g68" transform="matrix(-.88886 .45818 -.45818 -.88886 376.78 145.31)" stroke="#000" stroke-linecap="round" stroke-width=".66823pt" fill="none">
    <path id="path70" d="m0 0h141.98"/>
  </g>
  <g id="g72" transform="matrix(-.91291 .40817 -.40817 -.91291 376.78 145.31)" stroke="#000" stroke-linecap="round" stroke-width=".66823pt" fill="none">
    <path id="path74" d="m0 0h142"/>
  </g>
  <g id="g76" transform="matrix(-.90123 .43334 -.43334 -.90123 376.78 145.31)" stroke="#000" stroke-linecap="round" stroke-width=".66823pt" fill="none">
    <path id="path78" d="m0 0h141.99"/>
  </g>
  <g id="g80" transform="matrix(-.95250 .30453 -.30453 -.95250 376.78 145.31)" stroke="#000" stroke-linecap="round" stroke-width=".66823pt" fill="none">
    <path id="path82" d="m0 0h141.98"/>
  </g>
  <g id="g84" transform="matrix(-.38268 .92388 -.92388 -.38268 280.9 49.427)" stroke="#000" stroke-linecap="round" stroke-width=".66823pt" fill="none">
    <path id="path86" d="m0 0h177.16"/>
  </g>
  <g id="g88" transform="matrix(-.30453 .95250 -.95250 -.30453 280.9 49.427)" stroke="#000" stroke-linecap="round" stroke-width=".66823pt" fill="none">
    <path id="path90" d="m0 0h141.98"/>
  </g>
  <g id="g92" transform="matrix(-.35690 .93414 -.93414 -.35690 280.9 49.427)" stroke="#000" stroke-linecap="round" stroke-width=".66823pt" fill="none">
    <path id="path94" d="m0 0h142"/>
  </g>
  <g id="g96" transform="matrix(-.33084 .94369 -.94369 -.33084 280.9 49.427)" stroke="#000" stroke-linecap="round" stroke-width=".66823pt" fill="none">
    <path id="path98" d="m0 0h141.99"/>
  </g>
  <g id="g100" transform="matrix(-.45818 .88886 -.88886 -.45818 280.9 49.427)" stroke="#000" stroke-linecap="round" stroke-width=".66823pt" fill="none">
    <path id="path102" d="m0 0h141.98"/>
  </g>
  <g id="g104" transform="matrix(.38268 .92388 -.92388 .38268 145.31 49.427)" stroke="#000" stroke-linecap="round" stroke-width=".66823pt" fill="none">
    <path id="path106" d="m0 0h177.16"/>
  </g>
  <g id="g108" transform="matrix(.45818 .88886 -.88886 .45818 145.31 49.427)" stroke="#000" stroke-linecap="round" stroke-width=".66823pt" fill="none">
    <path id="path110" d="m0 0h141.98"/>
  </g>
  <g id="g112" transform="matrix(.40817 .91291 -.91291 .40817 145.31 49.427)" stroke="#000" stroke-linecap="round" stroke-width=".66823pt" fill="none">
    <path id="path114" d="m0 0h142"/>
  </g>
  <g id="g116" transform="matrix(.43334 .90123 -.90123 .43334 145.31 49.427)" stroke="#000" stroke-linecap="round" stroke-width=".66823pt" fill="none">
    <path id="path118" d="m0 0h141.99"/>
  </g>
  <g id="g120" transform="matrix(.30453 .95250 -.95250 .30453 145.31 49.427)" stroke="#000" stroke-linecap="round" stroke-width=".66823pt" fill="none">
    <path id="path122" d="m0 0h141.98"/>
  </g>
  <g id="g124" transform="matrix(-.38268 -.92388 .92388 -.38268 280.9 376.78)" stroke="#000" stroke-linecap="round" stroke-width=".66823pt" fill="none">
    <path id="path126" d="m0 0h177.16"/>
  </g>
  <g id="g128" transform="matrix(-.45818 -.88886 .88886 -.45818 280.9 376.78)" stroke="#000" stroke-linecap="round" stroke-width=".66823pt" fill="none">
    <path id="path130" d="m0 0h141.98"/>
  </g>
  <g id="g132" transform="matrix(-.40817 -.91291 .91291 -.40817 280.9 376.78)" stroke="#000" stroke-linecap="round" stroke-width=".66823pt" fill="none">
    <path id="path134" d="m0 0h142"/>
  </g>
  <g id="g136" transform="matrix(-.43334 -.90123 .90123 -.43334 280.9 376.78)" stroke="#000" stroke-linecap="round" stroke-width=".66823pt" fill="none">
    <path id="path138" d="m0 0h141.99"/>
  </g>
  <g id="g140" transform="matrix(-.30453 -.95250 .95250 -.30453 280.9 376.78)" stroke="#000" stroke-linecap="round" stroke-width=".66823pt" fill="none">
    <path id="path142" d="m0 0h141.98"/>
  </g>
  <g id="g144" transform="matrix(-.92388 -.38268 .38268 -.92388 376.78 280.9)" stroke="#000" stroke-linecap="round" stroke-width=".66823pt" fill="none">
    <path id="path146" d="m0 0h177.16"/>
  </g>
  <g id="g148" transform="matrix(-.95250 -.30453 .30453 -.95250 376.78 280.9)" stroke="#000" stroke-linecap="round" stroke-width=".66823pt" fill="none">
    <path id="path150" d="m0 0h141.98"/>
  </g>
  <g id="g152" transform="matrix(-.93414 -.35690 .35690 -.93414 376.78 280.9)" stroke="#000" stroke-linecap="round" stroke-width=".66823pt" fill="none">
    <path id="path154" d="m0 0h142"/>
  </g>
  <g id="g156" transform="matrix(-.94369 -.33084 .33084 -.94369 376.78 280.9)" stroke="#000" stroke-linecap="round" stroke-width=".66823pt" fill="none">
    <path id="path158" d="m0 0h141.99"/>
  </g>
  <g id="g160" transform="matrix(-.88886 -.45818 .45818 -.88886 376.78 280.9)" stroke="#000" stroke-linecap="round" stroke-width=".66823pt" fill="none">
    <path id="path162" d="m0 0h141.98"/>
  </g>
  <g id="g164" fill-rule="evenodd" transform="matrix(.70711 -.70711 .70711 .70711 65.667 65.667)" stroke="#000" stroke-width=".37728pt" fill="#fff">
    <path id="path166" d="m10.695 208.54l-8.9972-186.47c8.3001-4.904 3.9614-14.902-1.6978-22.07 2.3821e-14 0 0 208.54 0 208.54h10.695z"/>
  </g>
  <g id="g168" stroke-width=".37728pt" stroke="#000" transform="matrix(.70711 -.70711 .70711 .70711 58.105 73.229)" fill-rule="evenodd">
    <path id="path170" d="m0 208.54l8.9968-186.47c-8.3002-4.904-3.9614-14.902 1.6982-22.07v208.54h-10.695z"/>
  </g>
  <g id="g172" stroke-width=".37728pt" stroke="#000" transform="matrix(-.70711 .70711 -.70711 -.70711 360.54 360.54)" fill-rule="evenodd">
    <path id="path174" d="m10.695 208.54l-8.9972-186.47c8.3001-4.904 3.9614-14.902-1.6978-22.07 1.3767e-13 0 0 208.54 0 208.54h10.695z"/>
  </g>
  <g id="g176" fill-rule="evenodd" transform="matrix(-.70711 .70711 -.70711 -.70711 368.1 352.98)" stroke="#000" stroke-width=".37728pt" fill="#fff">
    <path id="path178" d="m0 208.54l8.9968-186.47c-8.3002-4.904-3.9614-14.902 1.6982-22.07v208.54h-10.695z"/>
  </g>
  <g id="g180" fill-rule="evenodd" transform="matrix(-.70711 -.70711 .70711 -.70711 65.667 360.54)" stroke="#000" stroke-width=".37728pt" fill="#fff">
    <path id="path182" d="m10.695 208.54l-8.9972-186.47c8.3001-4.904 3.9614-14.902-1.6978-22.07 2.558e-13 0 0 208.54 0 208.54h10.695z"/>
  </g>
  <g id="g184" stroke-width=".37728pt" stroke="#000" transform="matrix(-.70711 -.70711 .70711 -.70711 73.23 368.1)" fill-rule="evenodd">
    <path id="path186" d="m0 208.54l8.9968-186.47c-8.3002-4.904-3.9614-14.902 1.6982-22.07v208.54h-10.695z"/>
  </g>
  <g id="g188" stroke-width=".37728pt" stroke="#000" transform="matrix(.70711 .70711 -.70711 .70711 360.54 65.666)" fill-rule="evenodd">
    <path id="path190" d="m10.695 208.54l-8.9972-186.47c8.3001-4.904 3.9614-14.902-1.6978-22.07v208.54h10.695z"/>
  </g>
  <g id="g192" fill-rule="evenodd" transform="matrix(.70711 .70711 -.70711 .70711 352.98 58.105)" stroke="#000" stroke-width=".37728pt" fill="#fff">
    <path id="path194" d="m0 208.54l8.9968-186.47c-8.3002-4.904-3.9614-14.902 1.6982-22.07v208.54h-10.695z"/>
  </g>
  <g id="g196" stroke-linejoin="round" fill-rule="evenodd" transform="matrix(0 1 -1 0 425.7 198.74)" stroke="#000" stroke-width=".81081pt" fill="#fff">
    <path id="path198" d="m12.411 28.73c0.804-11.492-6.8162-11.492-6.6652-11.492 0 0 7.4692 0 8.6182-17.238v212.6l-14.364-14.37 12.411-169.5z"/>
  </g>
  <g id="g200" stroke-linejoin="round" fill-rule="evenodd" transform="matrix(0 1 -1 0 425.7 213.11)" stroke="#000" stroke-width=".81081pt">
    <path id="path202" d="m1.9536 28.73c-0.8044-11.492 6.8162-11.492 6.6651-11.492 0 0-7.4695 0-8.6187-17.238 6.9861e-14 0 0 212.6 0 212.6l14.364-14.37-12.41-169.5z"/>
  </g>
  <g id="g204" stroke-linejoin="round" fill-rule="evenodd" transform="matrix(0 -1 1 0 .50676 227.47)" stroke="#000" stroke-width=".81081pt">
    <path id="path206" d="m12.411 28.73c0.805-11.492-6.8162-11.492-6.6651-11.492 0 0 7.4701 0 8.6191-17.238v212.6s-14.365-14.37-14.365-14.37l12.411-169.5z"/>
  </g>
  <g id="g208" stroke-linejoin="round" fill-rule="evenodd" transform="matrix(0 -1 1 0 .50676 213.1)" stroke="#000" stroke-width=".81081pt" fill="#fff">
    <path id="path210" d="m1.9536 28.73c-0.8044-11.492 6.8163-11.492 6.6652-11.492 0 0-7.4696 0-8.6188-17.238l1.2434e-14 212.6s14.365-14.37 14.365-14.37l-12.411-169.5z"/>
  </g>
  <g id="g212" stroke-linejoin="round" fill-rule="evenodd" transform="translate(198.74 .50676)" stroke="#000" stroke-width=".81081pt" fill="#fff">
    <path id="path214" d="m12.411 28.73c0.804-11.492-6.8162-11.492-6.6652-11.492 0 0 7.4692 0 8.6182-17.238v212.6l-14.364-14.37 12.411-169.5z"/>
  </g>
  <g id="g216" stroke-linejoin="round" fill-rule="evenodd" transform="translate(213.11 .50676)" stroke="#000" stroke-width=".81081pt">
    <path id="path218" d="m1.9536 28.73c-0.8044-11.492 6.8162-11.492 6.6651-11.492 0 0-7.4695 0-8.6187-17.238 5.6843e-14 0 0 212.6 0 212.6l14.364-14.37-12.41-169.5z"/>
  </g>
  <g id="g220" stroke-linejoin="round" fill-rule="evenodd" transform="matrix(-1 0 0 -1 227.47 425.7)" stroke="#000" stroke-width=".81081pt">
    <path id="path222" d="m12.411 28.73c0.805-11.492-6.8162-11.492-6.6651-11.492 0 0 7.4701 0 8.6191-17.238v212.6s-14.365-14.37-14.365-14.37l12.411-169.5z"/>
  </g>
  <g id="g224" stroke-linejoin="round" fill-rule="evenodd" transform="matrix(-1 0 0 -1 213.11 425.7)" stroke="#000" stroke-width=".81081pt" fill="#fff">
    <path id="path226" d="m1.9536 28.73c-0.8044-11.492 6.8163-11.492 6.6652-11.492 0 0-7.4696 0-8.6188-17.238 2.6645e-14 0 0 212.6 0 212.6s14.365-14.37 14.365-14.37l-12.411-169.5z"/>
  </g>
  <g id="g228" transform="matrix(.70711 .70711 -.70711 .70711 213.11 213.11)" stroke="#fff" stroke-linecap="round" stroke-width=".81081pt" fill="none">
    <path id="path230" d="m0 0h20.318"/>
  </g>
  <metadata>
    <rdf:RDF>
      <cc:Work>
        <dc:format>image/svg+xml</dc:format>
        <dc:type rdf:resource="http://purl.org/dc/dcmitype/StillImage"/>
        <cc:license rdf:resource="http://creativecommons.org/licenses/publicdomain/"/>
        <dc:publisher>
          <cc:Agent rdf:about="http://openclipart.org/">
            <dc:title>Openclipart</dc:title>
          </cc:Agent>
        </dc:publisher>
        <dc:title>wind rose / compass rose</dc:title>
        <dc:date>2007-02-16T12:22:47</dc:date>
        <dc:description>clip art, clipart, compass, compass, direction, direction, east, east, icon, icon, image, map, map, media, north, north, public domain, rose, rose, sign, sign, south, south, svg, symbol, symbol, west, west, wind, wind, </dc:description>
        <dc:source>http://openclipart.org/detail/3256/wind-rose-/-compass-rose-by-urwald</dc:source>
        <dc:creator>
          <cc:Agent>
            <dc:title>urwald</dc:title>
          </cc:Agent>
        </dc:creator>
        <dc:subject>
          <rdf:Bag>
            <rdf:li>clip art</rdf:li>
            <rdf:li>clipart</rdf:li>
            <rdf:li>compass</rdf:li>
            <rdf:li>direction</rdf:li>
            <rdf:li>east</rdf:li>
            <rdf:li>icon</rdf:li>
            <rdf:li>image</rdf:li>
            <rdf:li>map</rdf:li>
            <rdf:li>media</rdf:li>
            <rdf:li>north</rdf:li>
            <rdf:li>public domain</rdf:li>
            <rdf:li>rose</rdf:li>
            <rdf:li>sign</rdf:li>
            <rdf:li>south</rdf:li>
            <rdf:li>svg</rdf:li>
            <rdf:li>symbol</rdf:li>
            <rdf:li>west</rdf:li>
            <rdf:li>wind</rdf:li>
          </rdf:Bag>
        </dc:subject>
      </cc:Work>
      <cc:License rdf:about="http://creativecommons.org/licenses/publicdomain/">
        <cc:permits rdf:resource="http://creativecommons.org/ns#Reproduction"/>
        <cc:permits rdf:resource="http://creativecommons.org/ns#Distribution"/>
        <cc:permits rdf:resource="http://creativecommons.org/ns#DerivativeWorks"/>
      </cc:License>
    </rdf:RDF>
  </metadata>
</svg>
